<svg width="22" height="60" fill="none" xmlns="http://www.w3.org/2000/svg"><rect y="12.676" width="21.127" height="33.803" rx="5" fill="#F7F7FF"/><path d="M0 16.901h21.127v25.353H0V16.9z" fill="#020016"/><path d="M0 16.901h21.127v25.353H0V16.9z" fill="#020016"/><path d="M0 18.592h21.127m0 21.971H0" stroke="#F7F7FF"/><path d="M5.916 12.676a4.225 4.225 0 014.225-4.225h1.69a4.225 4.225 0 014.225 4.225H5.916zm9.295 37.718a2 2 0 01-2 2h-4.45a2 2 0 01-2-2V46.48h8.45v3.915z" fill="#F7F7FF"/><circle cx="10.986" cy="5.915" r="4.415" fill="#020016" stroke="#F7F7FF" stroke-width="3"/><circle cx="10.986" cy="54.93" r="4.07" fill="#020016" stroke="#F7F7FF" stroke-width="2"/><path stroke="#F7F7FF" stroke-width="3.5" stroke-linecap="round" d="M4.896 21.409l13.35 1.168M4.896 36.409l13.35 1.168m-13.35-6.168l13.35 1.168m-13.35-6.168l13.35 1.168"/></svg>