<svg width="35" height="35" fill="none" xmlns="http://www.w3.org/2000/svg"><rect width="35" height="35" rx="2" fill="#F7F7FF"/><path d="M5 15.25a3 3 0 013-3h19a3 3 0 013 3v8.875c0 .345-.28.625-.625.625H5.625A.625.625 0 015 24.125V15.25z" fill="#08090A"/><path d="M10 26c0 .69-.56 1.25-1.25 1.25h-2.5C5.56 27.25 5 26.69 5 26v-4.875c0-.069.056-.125.125-.125h4.75c.069 0 .125.056.125.125V26zm20 0c0 .69-.56 1.25-1.25 1.25h-2.5c-.69 0-1.25-.56-1.25-1.25v-4.875c0-.069.056-.125.125-.125h4.75c.069 0 .125.056.125.125V26zM8.619 7.626A2 2 0 0110.584 6h13.832a2 2 0 011.965 1.626L27.5 13.5h-20l1.119-5.874z" fill="#08090A"/><path d="M9.678 8.858A2 2 0 0111.64 7.25h11.72a2 2 0 011.962 1.608l.928 4.642H8.75l.928-4.642zm-2.409 11.34a1 1 0 01.952-1.51l2.749.262a1 1 0 01.905.995v.614a1 1 0 01-.976 1l-2.192.052a1 1 0 01-.881-.485l-.557-.928zm19.837 0a1 1 0 00-.952-1.51l-2.749.262a1 1 0 00-.905.995v.614a1 1 0 00.976 1l2.192.052a1 1 0 00.881-.485l.557-.928z" fill="#F7F7FF"/></svg>