<svg width="130" height="60" fill="none" xmlns="http://www.w3.org/2000/svg"><path d="M2.5 26a1 1 0 011-1h99.728c13.405 0 24.272 10.867 24.272 24.272a.728.728 0 01-.728.728H2.5V26z" fill="#F7F7FF"/><path d="M92.5 42.5h33.75a3.75 3.75 0 010 7.5H92.5v-7.5zm-55 7.5H3.75a3.75 3.75 0 110-7.5H37.5V50z" fill="#F7F7FF"/><circle cx="20" cy="50" r="9" fill="#F7F7FF" stroke="#020016" stroke-width="2"/><circle cx="105" cy="50" r="9" fill="#F7F7FF" stroke="#020016" stroke-width="2"/><path d="M113.854 33.398c.821-1.11 3.286-.678 5.506.965 2.219 1.644 3.352 3.875 2.531 4.985-.822 1.11-5.035.938-7.255-.705-2.219-1.643-1.604-4.136-.782-5.245z" fill="#020016"/><path stroke="#F7F7FF" stroke-width=".7" stroke-linecap="round" d="M12.85 9.65h66.8"/><path stroke="#F7F7FF" stroke-width=".3" stroke-linecap="round" d="M4.952 27.293l10.75-17.245m62.003-.103l32.216 18.6"/><path stroke="#F7F7FF" stroke-width=".5" stroke-linecap="round" d="M17.25 30.372V10.25m40.57-.101l6.882 18.909"/><path d="M20 0h47a3 3 0 013 3v4.5H20V0z" fill="#F7F7FF"/></svg>