<svg width="42" height="42" fill="none" xmlns="http://www.w3.org/2000/svg"><path d="M41 1h.5V.5H41V1zm0 40v.5h.5V41H41zM1 1V.5H.5V1H1zm0 40H.5v.5H1V41zm14.141-12.884a.5.5 0 10.454.891l-.454-.89zm3.724-10.957l.179.467.01-.004.011-.005-.2-.458zm5.039 11.217a.5.5 0 00.928.371l-.928-.371zm-6.207-14.784a.5.5 0 10.342.94l-.342-.94zm8.224 15.746a.5.5 0 10.894.447l-.894-.447zm-5.155-5.954l-.5.033.5-.033zm.28-3.352a.5.5 0 10-.998.066l.997-.066zm-1.91 11.09a.5.5 0 10.938.35l-.937-.35zm10.758-6.155a.5.5 0 10.98.202l-.98-.202zm.504.03l-.49-.101.49.1zm.474-4.019a.5.5 0 10-.977.21l.977-.21zm-17.335.268l-.5.036.5-.036zm.082 1.163l.5-.036-.5.036zm-.844 4.25l-.447-.223.447.224zm-.943.767a.5.5 0 10.895.448l-.895-.448zm4.725-11.36a.5.5 0 00-.555-.832l.555.832zm7.756-5.776l-.042.498.042-.498zm-2.814-.234l-.053.497h.012l.041-.497zm8.37 8.574a.5.5 0 00.997-.091l-.996.09zm.269-2.561l-.498.045.498-.045zm-19.05 1.957l-.494-.078.494.078zm-.088.558l-.494-.078-.006.04v.038h.5zm-.5 1.5a.5.5 0 001 0h-1zm18.694-6.816l.424-.265-.424.265zM40.5 1v10h1V1h-1zm0 30v10h1V31h-1zM31 1.5h10v-1H31v1zm-30 0h10v-1H1v1zm.5 9.5V1h-1v10h1zm0 30V31h-1v10h1zm9.5-.5H1v1h10v-1zm30 0H31v1h10v-1zM15.595 29.007c.973-.496 1.354-1.518 1.516-2.58.164-1.07.13-2.358.13-3.567 0-1.24.035-2.41.295-3.357.255-.928.707-1.57 1.508-1.877l-.357-.934c-1.198.458-1.808 1.43-2.115 2.546-.301 1.095-.33 2.394-.33 3.622 0 1.26.03 2.442-.12 3.415-.15.98-.456 1.574-.981 1.841l.454.891zm3.47-11.39c1.663-.726 2.836-.666 3.656-.227.834.447 1.432 1.353 1.788 2.589.715 2.48.362 5.98-.605 8.397l.928.371c1.033-2.582 1.426-6.311.638-9.045-.395-1.372-1.111-2.57-2.277-3.193-1.18-.632-2.694-.609-4.528.192l.4.916zm-1.026-3.086c2.717-.988 4.681-.873 6.073-.164 1.395.712 2.323 2.076 2.85 3.813 1.059 3.497.409 8.259-1.041 11.158l.894.447c1.55-3.1 2.246-8.125 1.103-11.895-.575-1.898-1.635-3.538-3.352-4.413-1.72-.877-3.99-.932-6.87.115l.343.94zm3.225 8.82l-.219-3.319-.997.066.219 3.319.997-.066zm-1.19 8.12a19.554 19.554 0 001.19-8.12l-.997.066a18.554 18.554 0 01-1.13 7.705l.937.35zm10.8-6.302l.014-.071-.98-.202-.014.071.98.202zm.014-.071c.28-1.36.275-2.763-.016-4.12l-.977.21a9.015 9.015 0 01.014 3.708l.979.202zm-17.85-3.816l.083 1.163.997-.072-.083-1.162-.997.071zm-.71 5.154l-.496.99.895.448.495-.99-.894-.448zm.793-3.991a7.698 7.698 0 01-.793 3.991l.894.447a8.7 8.7 0 00.896-4.51l-.997.072zm2.881-7.211a6.696 6.696 0 00-2.964 6.048l.997-.071a5.695 5.695 0 012.522-5.145l-.555-.832zm8.352-5.442l-2.813-.235-.083.997 2.813.234.083-.996zm6.512 8.747l-.23-2.516-.996.091.23 2.516.996-.091zm-20.272-.591l-.088.558.988.156.088-.558-.988-.156zm-.094.636v1.5h1v-1.5h-1zm20.136-2.56a6.882 6.882 0 00-1.018-3.021l-.848.53a5.88 5.88 0 01.87 2.581l.996-.09zm-6.365-5.236a5.882 5.882 0 014.5 2.745l.847-.53a6.882 6.882 0 00-5.264-3.211l-.083.996zm-2.718-1.23a10.007 10.007 0 00-10.959 8.39l.988.156a9.008 9.008 0 019.864-7.551l.107-.995z" fill="#F7F7FF"/></svg>