<svg width="30" height="30" fill="none" xmlns="http://www.w3.org/2000/svg"><circle cx="15" cy="15" r="14" stroke="#F7F7FF" stroke-width="2"/><path d="M14.94 21.685c-1.014 0-1.91-.14-2.69-.418-.778-.275-1.433-.681-1.963-1.218-.53-.537-.931-1.195-1.203-1.974-.272-.779-.408-1.67-.408-2.674 0-.971.138-1.84.413-2.605a5.314 5.314 0 011.208-1.95 5.244 5.244 0 011.929-1.227c.759-.282 1.617-.423 2.575-.423.931 0 1.747.152 2.446.457.703.302 1.29.711 1.76 1.228a5.144 5.144 0 011.064 1.736 5.67 5.67 0 01.358 1.988c0 .48-.023.968-.07 1.462a5.542 5.542 0 01-.293 1.362c-.15.411-.38.742-.691.994-.308.252-.726.378-1.253.378-.232 0-.487-.036-.765-.11a2.01 2.01 0 01-.741-.362 1.008 1.008 0 01-.383-.681h-.06a1.765 1.765 0 01-1.009.96c-.262.102-.582.147-.96.133a2.592 2.592 0 01-1.138-.288 2.476 2.476 0 01-.825-.726 3.412 3.412 0 01-.497-1.069 5.068 5.068 0 01-.165-1.317c0-.447.067-.857.2-1.228.132-.371.316-.696.551-.974.239-.279.517-.501.835-.667a2.87 2.87 0 011.04-.313c.331-.033.633-.018.904.045.272.06.496.15.671.273.176.12.287.252.334.398h.06v-.557h1.053v4.495c0 .278.078.523.234.735.156.212.383.319.681.319.338 0 .597-.117.776-.349.182-.232.306-.59.373-1.073.07-.484.104-1.104.104-1.86a4.77 4.77 0 00-.184-1.312 4.333 4.333 0 00-.547-1.218 3.977 3.977 0 00-.92-1 4.244 4.244 0 00-1.307-.676c-.497-.165-1.063-.248-1.696-.248-.778 0-1.476.12-2.093.363a4.195 4.195 0 00-1.566 1.049 4.593 4.593 0 00-.979 1.67c-.222.653-.333 1.395-.333 2.227 0 .845.11 1.596.333 2.252.225.657.557 1.21.994 1.661.441.45.986.792 1.636 1.024.65.236 1.399.353 2.247.353.365 0 .724-.035 1.079-.104.355-.07.668-.146.94-.229.271-.083.467-.144.586-.184l.279.915a6.13 6.13 0 01-.806.258c-.328.087-.68.158-1.054.214a7.091 7.091 0 01-1.064.085zm-.576-3.958c.444 0 .803-.09 1.079-.268.275-.18.475-.45.601-.81.126-.362.189-.818.189-1.368 0-.557-.07-.99-.209-1.302-.14-.312-.345-.53-.616-.657-.272-.125-.607-.188-1.005-.188-.377 0-.7.099-.97.298a1.888 1.888 0 00-.61.785c-.14.325-.21.68-.21 1.064 0 .425.057.824.17 1.198.112.372.296.673.552.905.255.229.598.343 1.029.343z" fill="#F7F7FF"/></svg>