<svg width="48" height="60" fill="none" xmlns="http://www.w3.org/2000/svg"><path d="M47.684 39.789C47.684 50.95 37.008 60 23.842 60 10.674 60 0 50.951 0 39.789c0-11.163 10.674-20.211 23.842-20.211 13.167 0 23.842 9.048 23.842 20.21z" fill="#F7F7FF"/><path d="M24.632 0l11.046 10.527c4.847 4.62 8.549 10.354 9.792 16.49l.51 1.532.511 2.044.802 3.576c.62 2.402.39 3.16.39 5.62l-.39.633c-1.33 2.541-4.569 3.908-7.713 3.256L1.936 35.873v-1.177l3.081-4.11c.297-.396.455-.857.455-1.328 0-.618.272-1.214.76-1.667l4.068-4.44 5.725-4.624c4.595-4.84 7.501-10.707 8.38-16.916L24.631 0z" fill="#F7F7FF"/><path d="M35.987 29.506c0 3.508-3.355 6.352-7.494 6.352-4.138 0-7.493-2.844-7.493-6.352 0-3.509 3.355-6.353 7.494-6.353 4.138 0 7.493 2.844 7.493 6.353z" fill="#020016"/><path d="M28.742 17l3.472 3.309c1.523 1.452 2.687 3.254 3.077 5.182l.16.482.161.642.252 1.124c.195.755.123.993.123 1.767l-.123.199c-.418.798-1.436 1.228-2.424 1.023l-11.832-2.453v-.37l.969-1.292a.695.695 0 00.143-.417c0-.195.085-.382.239-.524l1.278-1.395 1.8-1.454c1.444-1.521 2.357-3.365 2.633-5.317l.072-.506z" fill="#020016"/></svg>