<svg width="60" height="60" viewBox="0 0 82 81" fill="none" xmlns="http://www.w3.org/2000/svg"><path d="M37.653 11.283l32.557 18.71a4 4 0 011.476 5.461l-18.074 31.45c-1.759 3.06-6.331 2.508-7.31-.884L31.816 15.86c-.998-3.455 2.717-6.37 5.836-4.577z" stroke="#F7F7FF" stroke-width="2"/><circle cx="49.268" cy="68.286" r="8.654" transform="rotate(-60.115 49.268 68.286)" fill="#F7F7FF" stroke="#020016"/><circle cx="49.268" cy="68.286" r="6.823" transform="rotate(-60.115 49.268 68.286)" fill="#F7F7FF" stroke="#020016"/><circle cx="70.418" cy="32.402" r="6.366" transform="rotate(-60.115 70.418 32.402)" fill="#F7F7FF" stroke="#020016"/><circle cx="70.418" cy="32.402" r="4.75" transform="rotate(-60.115 70.418 32.402)" fill="#F7F7FF" stroke="#020016"/><circle cx="35.257" cy="13.7" r="6" transform="rotate(-60.115 35.257 13.7)" fill="#F7F7FF" stroke="#020016"/><circle cx="35.256" cy="13.7" r="4.143" transform="rotate(-60.115 35.256 13.7)" fill="#F7F7FF" stroke="#020016"/></svg>