<svg width="50" height="60" fill="none" xmlns="http://www.w3.org/2000/svg"><rect width="8.706" height="18.121" rx="4.353" transform="matrix(.84786 -.53022 .47037 .88247 0 4.616)" fill="#F7F7FF"/><path d="M35.574 8.458c-1.13-2.122-.395-4.875 1.643-6.15 2.039-1.275 4.608-.588 5.739 1.534l4.428 8.308c1.131 2.121.395 4.875-1.643 6.15-2.038 1.274-4.608.588-5.739-1.534l-4.428-8.308z" fill="#F7F7FF"/><rect width="8.706" height="18.121" rx="4.353" transform="matrix(.84786 -.53022 .47037 .88247 1.136 44.009)" fill="#F7F7FF"/><rect width="8.706" height="18.121" rx="4.353" transform="matrix(.84786 -.53022 .47037 .88247 34.095 44.009)" fill="#F7F7FF"/><rect x="22.162" y="4.924" width="5.682" height="49.24" rx="2.841" fill="#F7F7FF"/><path transform="rotate(.927 -642.43 602.818) skewX(.137)" stroke="#F7F7FF" stroke-width="3" stroke-linecap="round" d="M1.5-1.5h28.254"/><path transform="rotate(.927 -3079.225 622.567) skewX(.137)" stroke="#F7F7FF" stroke-width="3" stroke-linecap="round" d="M1.5-1.5h28.254"/></svg>